Coordinates
version=1
nRows=12
nColumns=24
inDegrees=yes

Units are S.I. units (second, meters, Newtons, ...)
Angles are in degrees.

endheader
time	pelvis_tilt	pelvis_list	pelvis_rotation	pelvis_tx	pelvis_ty	pelvis_tz	hip_flexion_r	hip_adduction_r	hip_rotation_r	knee_angle_r	ankle_angle_r	subtalar_angle_r	mtp_angle_r	hip_flexion_l	hip_adduction_l	hip_rotation_l	knee_angle_l	ankle_angle_l	subtalar_angle_l	mtp_angle_l	lumbar_extension	lumbar_bending	lumbar_rotation
      4.72000000	     12.97652641	     -7.37364067	     12.35623301	      0.56317329	      0.93488493	     -0.29241697	     -8.99012586	     13.79776978	     -1.04443353	     -9.52630041	     21.26436435	     -3.20004230	      0.00000000	      3.50278290	     -8.91791507	      9.66337402	    -66.45697966	     14.56033287	     -1.78927979	      0.00000000	    -26.06772144	     11.46520741	    -11.50709340
      4.72500000	     12.89337192	     -7.12918607	     12.04262759	      0.56952982	      0.93548632	     -0.29234347	     -9.65592861	     13.55090098	     -0.85202448	     -9.03870308	     21.35011751	     -3.06222112	      0.00000000	      4.28025981	     -8.32721911	      9.60538815	    -66.02916704	     15.08720032	     -1.94710328	      0.00000000	    -26.09264511	     11.08287436	    -11.18744964
      4.73000000	     12.88491720	     -6.88192233	     11.61711110	      0.57583518	      0.93613343	     -0.29218069	    -10.39417127	     13.28566287	     -0.56847162	     -8.58788978	     21.47396247	     -2.87515671	      0.00000000	      4.92272034	     -7.76778363	      9.40350319	    -65.48355499	     15.59054379	     -2.14151367	      0.00000000	    -26.23751295	     10.66463632	    -10.71154828
      4.73500000	     12.85952767	     -6.63849128	     11.29500555	      0.58219073	      0.93669188	     -0.29210993	    -11.11667007	     13.03706527	     -0.38143039	     -8.09554661	     21.53515453	     -2.75197472	      0.00000000	      5.59128815	     -7.21797129	      9.30457081	    -64.86247785	     16.07906881	     -2.17665475	      0.00000000	    -26.32291804	     10.28767742	    -10.37210109
      4.74000000	     12.76925580	     -6.43669411	     11.06293238	      0.58852304	      0.93707618	     -0.29213438	    -11.74601706	     12.83297133	     -0.29207435	     -7.60080660	     21.56534234	     -2.65794294	      0.00000000	      6.35458548	     -6.70191328	      9.30216652	    -64.19221006	     16.55369562	     -2.07878101	      0.00000000	    -26.30935085	      9.98520829	    -10.13277476
      4.74500000	     12.78513340	     -6.20394417	     10.65345892	      0.59485746	      0.93758982	     -0.29200833	    -12.49681841	     12.56760538	     -0.07930768	     -7.14537734	     21.64964548	     -2.44133240	      0.00000000	      6.91092296	     -6.20256493	      9.08762804	    -63.37231298	     16.97696452	     -2.08695883	      0.00000000	    -26.45751145	      9.59054976	     -9.67260878
      4.75000000	     12.69312909	     -6.02936180	     10.45322596	      0.60111497	      0.93782159	     -0.29204304	    -13.08880406	     12.39255879	     -0.03098373	     -6.68673582	     21.66462288	     -2.36877526	      0.00000000	      7.65096068	     -5.73715056	      9.09950015	    -62.54135521	     17.44125856	     -1.89698145	      0.00000000	    -26.44841112	      9.31879978	     -9.45592678
      4.75500000	     12.61600445	     -5.84365170	     10.17682863	      0.60740732	      0.93805049	     -0.29205947	    -13.69804677	     12.18166846	      0.05521318	     -6.25100723	     21.72782158	     -2.21797525	      0.00000000	      8.31710528	     -5.27674589	      9.03139864	    -61.59617341	     17.85345766	     -1.69789206	      0.00000000	    -26.46001193	      9.02348800	     -9.16915214
      4.76000000	     12.72526618	     -5.62735262	      9.71982463	      0.61370096	      0.93850062	     -0.29195083	    -14.51999854	     11.91210178	      0.28534123	     -5.83898682	     21.81827016	     -1.98521246	      0.00000000	      8.68396928	     -4.85278290	      8.75278690	    -60.49321020	     18.22112272	     -1.61081965	      0.00000000	    -26.72215862	      8.65214595	     -8.64545769
      4.76500000	     12.64693571	     -5.49239559	      9.53151961	      0.61994643	      0.93854955	     -0.29203284	    -15.09332062	     11.77037881	      0.31070198	     -5.42223713	     21.85071156	     -1.91746125	      0.00000000	      9.33836976	     -4.46487573	      8.76725030	    -59.40879346	     18.61950140	     -1.28564380	      0.00000000	    -26.71881235	      8.43868791	     -8.43938057
      4.77000000	     12.73048356	     -5.30312616	      9.13243293	      0.62620832	      0.93883641	     -0.29199120	    -15.85126155	     11.52438045	      0.47557998	     -5.05036012	     21.92956956	     -1.68599675	      0.00000000	      9.69970089	     -4.08242170	      8.55307256	    -58.14668374	     18.96550976	     -1.09367689	      0.00000000	    -26.94206670	      8.11785023	     -7.98253006
      4.77500000	     12.65379109	     -5.21076315	      8.95523259	      0.63244464	      0.93875811	     -0.29210203	    -16.39706313	     11.42159100	      0.48367014	     -4.67485874	     21.95442272	     -1.62359028	      0.00000000	     10.30246350	     -3.75952324	      8.58872410	    -56.90117453	     19.32036983	     -0.70980630	      0.00000000	    -26.93623432	      7.95350704	     -7.77030758
